<svg version="1.1" xmlns="http://www.w3.org/2000/svg" xmlns:xlink="http://www.w3.org/1999/xlink" width="48" height="48"><defs><linearGradient x1="14.22989" y1="14.22989" x2="34.83077" y2="34.83077" gradientUnits="userSpaceOnUse" id="color-1"><stop offset="0" stop-color="#000000" stop-opacity="0.17"></stop><stop offset="1" stop-color="#000000" stop-opacity="0"></stop></linearGradient><filter id="dropshadow-base"><feColorMatrix type="matrix" values="0 0 0 0 0  0 0 0 0 0  0 0 0 0 0  0 0 0 .8 0"></feColorMatrix> <feOffset dx="0" dy="1"></feOffset> <feGaussianBlur stdDeviation="1"></feGaussianBlur> <feComposite in="SourceGraphic"></feComposite></filter><filter id="dropshadow-banner" x="-10%" y="-10%" width="120%" height="130%"><feColorMatrix type="matrix" values="0 0 0 0 0  0 0 0 0 0  0 0 0 0 0  0 0 0 .4 0"></feColorMatrix> <feOffset dx="0" dy="1"></feOffset> <feGaussianBlur stdDeviation="0.5"></feGaussianBlur> <feComposite in="SourceGraphic"></feComposite></filter></defs><g fill="none" fill-rule="nonzero" stroke="none" stroke-width="none" stroke-linecap="butt" stroke-linejoin="miter" stroke-miterlimit="10" stroke-dasharray="" stroke-dashoffset="0" font-family="none" font-weight="none" font-size="none" text-anchor="none" style="mix-blend-mode: normal"><path d="M7,43c-1.10457,0 -2,-0.89543 -2,-2v-34c0,-1.10457 0.89543,-2 2,-2h34c1.10457,0 2,0.89543 2,2v34c0,1.10457 -0.89543,2 -2,2z" id="base 1 9" fill="#299e66" stroke-width="1"></path><path d="M20.99841,27.2567h6.2583l0,-1.11047l-5.90326,0l-1.06066,-1.06066c-0.05428,-0.35281 -0.09227,-0.71647 -0.09227,-1.08557c0,-0.3691 0.038,-0.73276 0.09227,-1.08557h6.96392v-1.11047l-5.19764,0l-1.06066,-1.06066c1.17785,-2.25798 3.53353,-3.79949 6.2583,-3.79949c1.75319,0 3.3544,0.64049 4.58652,1.69891l1.78605,-1.77599c-1.5284,-0.99442 -3.35367,-1.57618 -5.31192,-1.57618c-4.25,0 -7.85951,2.71934 -9.20019,6.51341h-3.82663l0,1.11047h2.26118l1.06066,1.06066c-0.04342,0.35824 -0.06514,0.71647 -0.06514,1.08557c0,0.3691 0.02171,0.72733 0.06514,1.08557h-3.32184l0,1.11047h2.76597l1.06066,1.06066c0.40627,1.14972 1.02088,2.20076 1.79853,3.10733c1.70467,1.46212 3.91882,2.34541 6.341,2.34541c2.50147,0 4.78596,-0.94929 6.51183,-2.4954l-0.86464,-0.86221c-1.23212,1.05843 -2.83333,1.70434 -4.58652,1.70434v0.00001c-1.94628,0 -3.70905,-0.78963 -4.98584,-2.06643l-1.06066,-1.06066c-0.50715,-0.50715 -0.93762,-1.09115 -1.27246,-1.73306zM27.25671,31.05618c1.75319,0 3.3544,-0.64591 4.58652,-1.70434l1.92688,1.92146l1.06066,1.06066c-1.72606,1.54694 -4.01118,2.49681 -6.51341,2.49681c-2.69214,0 -5.12728,-1.09114 -6.89155,-2.85541l-1.06066,-1.06066c-0.75378,-0.75378 -1.38509,-1.63042 -1.86167,-2.59734h-3.21295l-1.06066,-1.06066v-2.17113h3.32184c-0.04343,-0.35824 -0.06514,-0.71647 -0.06514,-1.08557c0,-0.00831 0.00001,-0.01661 0.00003,-0.02491l-2.19607,0l-1.06066,-1.06066v-2.17113h3.82663c1.34068,-3.79407 4.95019,-6.51341 9.20019,-6.51341c2.50223,0 4.78735,0.94988 6.51341,2.49681l1.06066,1.06066l-1.92688,1.91603c-1.23212,-1.05843 -2.83333,-1.69891 -4.58652,-1.69891c-2.27283,0 -4.28885,1.07255 -5.57869,2.73883h4.51803l1.06066,1.06066v2.17113h-6.96392c-0.05427,0.35281 -0.09227,0.71647 -0.09227,1.08557c0,0.0083 0.00002,0.01661 0.00006,0.02491h5.99547l1.06066,1.06066v2.17113h-6.2583c0.21795,0.41782 0.47641,0.8111 0.77017,1.17463c1.21082,0.97837 2.75108,1.5642 4.42748,1.5642z" fill="url(#color-1)" stroke-width="1"></path><path transform="translate(0.55174,0.55174) scale(0.97701,0.97701)" d="M27.33333,31.22222c-2.78333,0 -5.2,-1.57778 -6.40556,-3.88889h6.40556v-2.22222h-7.12778c-0.05556,-0.36111 -0.09444,-0.73333 -0.09444,-1.11111c0,-0.37778 0.03889,-0.75 0.09444,-1.11111h7.12778v-2.22222h-6.40556c1.20556,-2.31111 3.61667,-3.88889 6.40556,-3.88889c1.79444,0 3.43333,0.65556 4.69444,1.73889l1.97222,-1.96111c-1.76667,-1.58333 -4.10556,-2.55556 -6.66667,-2.55556c-4.35,0 -8.04444,2.78333 -9.41667,6.66667h-3.91667v2.22222h3.4c-0.04444,0.36667 -0.06667,0.73333 -0.06667,1.11111c0,0.37778 0.02222,0.74444 0.06667,1.11111h-3.4v2.22222h3.91667c1.37222,3.88333 5.06667,6.66667 9.41667,6.66667c2.56111,0 4.9,-0.97222 6.66667,-2.55556l-1.97222,-1.96667c-1.26111,1.08333 -2.9,1.74444 -4.69444,1.74444z" fill="none" stroke-width="0"></path><path d="M31.84323,29.35185l1.92688,1.92145c-1.72605,1.54693 -4.01117,2.49681 -6.51341,2.49681c-4.25,0 -7.85951,-2.71935 -9.20019,-6.51341h-3.82663v-2.17114h3.32184c-0.04342,-0.35824 -0.06513,-0.71647 -0.06513,-1.08557c0,-0.36909 0.02171,-0.72733 0.06513,-1.08557h-3.32184v-2.17114h3.82663c1.34068,-3.79406 4.95019,-6.51341 9.20019,-6.51341c2.50223,0 4.78735,0.94987 6.51341,2.49681l-1.92688,1.91603c-1.23212,-1.05843 -2.83333,-1.69891 -4.58652,-1.69891c-2.72477,0 -5.08046,1.54151 -6.2583,3.79949h6.2583v2.17114h-6.96392c-0.05428,0.35281 -0.09227,0.71647 -0.09227,1.08557c0,0.36909 0.03799,0.73276 0.09227,1.08557h6.96392v2.17114h-6.2583c1.17784,2.25798 3.53895,3.79949 6.2583,3.79949c1.75319,0 3.3544,-0.64591 4.58652,-1.70434z" fill="#ffc940" stroke-width="0"></path><path d="M2,24c0,-12.15026 9.84974,-22 22,-22c12.15026,0 22,9.84974 22,22c0,12.15026 -9.84974,22 -22,22c-12.15026,0 -22,-9.84974 -22,-22z" id="base 1 5 1" fill="none" stroke-width="1"></path><path d="M2,24c0,-12.15026 9.84974,-22 22,-22c12.15026,0 22,9.84974 22,22c0,12.15026 -9.84974,22 -22,22c-12.15026,0 -22,-9.84974 -22,-22z" id="base 1 1 1" fill="none" stroke-width="1"></path><g fill="#000000" stroke-width="1" font-family="Roboto, sans-serif" font-weight="400" font-size="14" text-anchor="start"></g><rect x="2" y="2" width="44" height="22" fill="none" stroke-width="1"></rect><path d="M2,24v-22h44v22z" fill="none" stroke-width="1"></path><path d="M2,24v-22h44v22z" fill="none" stroke-width="1"></path><path d="M2,24v-22h44v22z" fill="none" stroke-width="1"></path><path d="M2,24v-22h44v22z" fill="none" stroke-width="1"></path><g fill="#000000" stroke-width="1" font-family="Roboto, sans-serif" font-weight="400" font-size="14" text-anchor="start"></g><rect x="2" y="2" width="44" height="22" fill="none" stroke-width="1"></rect><path d="M2,24v-22h44v22z" fill="none" stroke-width="1"></path><path d="M2,24v-22h44v22z" fill="none" stroke-width="1"></path><path d="M2,24v-22h44v22z" fill="none" stroke-width="1"></path><path d="M2,24v-22h44v22z" fill="none" stroke-width="1"></path></g></svg>